<svg width="24" height="24" viewBox="0 0 24 24" fill="none" xmlns="http://www.w3.org/2000/svg">
<path d="M18.327 7.28613H10.283C9.77076 7.28799 9.28023 7.49318 8.91925 7.8566C8.55827 8.22001 8.35639 8.71191 8.35798 9.22413V19.3121C8.35798 20.3821 9.21998 21.2501 10.283 21.2501H18.327C18.8392 21.2483 19.3297 21.0431 19.6907 20.6797C20.0517 20.3163 20.2536 19.8244 20.252 19.3121V9.22413C20.252 8.15413 19.39 7.28613 18.327 7.28613Z" stroke="black" stroke-width="1.5" stroke-linecap="round" stroke-linejoin="round"/>
<path d="M15.642 7.286V4.688C15.642 4.174 15.439 3.681 15.078 3.318C14.8998 3.1382 14.6878 2.99545 14.4543 2.89796C14.2207 2.80048 13.9701 2.75019 13.717 2.75H5.67299C5.16299 2.75 4.67299 2.954 4.31299 3.318C3.95124 3.68222 3.74815 4.17467 3.74799 4.688V14.776C3.74799 15.29 3.95099 15.783 4.31199 16.146C4.67299 16.51 5.16199 16.714 5.67299 16.714H8.35799" stroke="black" stroke-width="1.5" stroke-linecap="round" stroke-linejoin="round"/>
</svg>
