<svg width="26" height="26" viewBox="0 0 26 26" fill="none" xmlns="http://www.w3.org/2000/svg">
<path d="M9.75 11.3751C9.75 11.1596 9.8356 10.9529 9.98797 10.8005C10.1403 10.6482 10.347 10.5626 10.5625 10.5626H15.4375C15.653 10.5626 15.8596 10.6482 16.012 10.8005C16.1644 10.9529 16.25 11.1596 16.25 11.3751C16.25 11.5906 16.1644 11.7972 16.012 11.9496C15.8596 12.102 15.653 12.1876 15.4375 12.1876H10.5625C10.347 12.1876 10.1403 12.102 9.98797 11.9496C9.8356 11.7972 9.75 11.5906 9.75 11.3751ZM10.5625 13.8126C10.347 13.8126 10.1403 13.8982 9.98797 14.0505C9.8356 14.2029 9.75 14.4096 9.75 14.6251C9.75 14.8406 9.8356 15.0472 9.98797 15.1996C10.1403 15.352 10.347 15.4376 10.5625 15.4376H13.8125C14.028 15.4376 14.2346 15.352 14.387 15.1996C14.5394 15.0472 14.625 14.8406 14.625 14.6251C14.625 14.4096 14.5394 14.2029 14.387 14.0505C14.2346 13.8982 14.028 13.8126 13.8125 13.8126H10.5625ZM3.25 13.0001C3.25041 10.8535 3.95919 8.76711 5.26638 7.06448C6.57356 5.36186 8.40609 4.1382 10.4797 3.58333C12.5533 3.02846 14.752 3.1734 16.7348 3.99566C18.7177 4.81792 20.3737 6.27154 21.4461 8.13102C22.5185 9.99051 22.9472 12.1519 22.6659 14.2799C22.3845 16.408 21.4088 18.3837 19.89 19.9006C18.3712 21.4174 16.3943 22.3907 14.2659 22.6694C12.1375 22.9481 9.97664 22.5167 8.1185 21.4419L4.31925 22.7094C4.17888 22.7563 4.02839 22.764 3.884 22.7315C3.73961 22.6991 3.60681 22.6279 3.49994 22.5256C3.39307 22.4232 3.31618 22.2936 3.27757 22.1507C3.23897 22.0079 3.24011 21.8572 3.28087 21.7149L4.43787 17.6671C3.65627 16.2358 3.24775 14.6308 3.25 13.0001ZM13 4.87507C11.5654 4.87498 10.1564 5.25472 8.91614 5.9757C7.67589 6.69667 6.64864 7.73316 5.9388 8.97982C5.22897 10.2265 4.86187 11.6389 4.87482 13.0734C4.88776 14.5079 5.28029 15.9134 6.0125 17.1471C6.06883 17.2424 6.1051 17.3482 6.11907 17.458C6.13304 17.5678 6.12442 17.6793 6.09375 17.7857L5.26662 20.6782L7.96087 19.7812C8.0753 19.743 8.19679 19.7308 8.31652 19.7454C8.43626 19.76 8.55124 19.8011 8.65312 19.8657C9.71794 20.5396 10.9249 20.9565 12.1786 21.0836C13.4323 21.2107 14.6984 21.0445 15.8768 20.598C17.0552 20.1516 18.1136 19.4371 18.9683 18.5112C19.823 17.5852 20.4507 16.4732 20.8016 15.2629C21.1526 14.0526 21.2172 12.7773 20.9904 11.5377C20.7636 10.2982 20.2516 9.12836 19.4949 8.12076C18.7381 7.11315 17.7574 6.29538 16.6301 5.73207C15.5029 5.16876 14.2601 4.87537 13 4.87507Z" fill="black"/>
</svg>
