<svg width="24" height="24" viewBox="0 0 24 24" fill="none" xmlns="http://www.w3.org/2000/svg">
<path d="M5 19H6.098L16.796 8.30198L15.698 7.20398L5 17.902V19ZM4 20V17.48L17.18 4.28798C17.2827 4.19664 17.396 4.12598 17.52 4.07598C17.644 4.02598 17.773 4.00098 17.907 4.00098C18.0417 4.00098 18.1717 4.02198 18.297 4.06398C18.4237 4.10664 18.5403 4.18331 18.647 4.29398L19.713 5.36598C19.8237 5.47264 19.899 5.58931 19.939 5.71598C19.9797 5.84331 20 5.97064 20 6.09798C20 6.23331 19.977 6.36298 19.931 6.48698C19.8857 6.61031 19.813 6.72331 19.713 6.82598L6.52 20H4ZM16.237 7.76198L15.698 7.20398L16.796 8.30198L16.237 7.76198Z" fill="#0F0F0F"/>
</svg>
