<svg width="21" height="21" viewBox="0 0 21 21" fill="none" xmlns="http://www.w3.org/2000/svg">
<path fill-rule="evenodd" clip-rule="evenodd" d="M10.5 18.54L11.131 17.829C11.847 17.009 12.491 16.231 13.064 15.491L13.537 14.867C15.512 12.206 16.5 10.094 16.5 8.533C16.5 5.201 13.814 2.5 10.5 2.5C7.186 2.5 4.5 5.201 4.5 8.533C4.5 10.094 5.488 12.206 7.463 14.867L7.936 15.491C8.75344 16.5384 9.60867 17.5547 10.5 18.54Z" stroke="#575757" stroke-linecap="round" stroke-linejoin="round"/>
<path d="M10.5 11C11.8807 11 13 9.88071 13 8.5C13 7.11929 11.8807 6 10.5 6C9.11929 6 8 7.11929 8 8.5C8 9.88071 9.11929 11 10.5 11Z" stroke="#575757" stroke-linecap="round" stroke-linejoin="round"/>
</svg>
