<svg width="12" height="23" viewBox="0 0 12 23" fill="none" xmlns="http://www.w3.org/2000/svg">
<g clip-path="url(#clip0_246_1786)">
<path d="M5.75 6.5C6.16421 6.5 6.5 6.16421 6.5 5.75C6.5 5.33579 6.16421 5 5.75 5C5.33579 5 5 5.33579 5 5.75C5 6.16421 5.33579 6.5 5.75 6.5Z" stroke="black" stroke-width="1.5" stroke-linecap="round" stroke-linejoin="round"/>
<path d="M5.75 12C6.16421 12 6.5 11.6642 6.5 11.25C6.5 10.8358 6.16421 10.5 5.75 10.5C5.33579 10.5 5 10.8358 5 11.25C5 11.6642 5.33579 12 5.75 12Z" stroke="black" stroke-width="1.5" stroke-linecap="round" stroke-linejoin="round"/>
<path d="M5.75 17.5C6.16421 17.5 6.5 17.1642 6.5 16.75C6.5 16.3358 6.16421 16 5.75 16C5.33579 16 5 16.3358 5 16.75C5 17.1642 5.33579 17.5 5.75 17.5Z" stroke="black" stroke-width="1.5" stroke-linecap="round" stroke-linejoin="round"/>
</g>
<defs>
<clipPath id="clip0_246_1786">
<rect width="11.5" height="22.5" fill="white"/>
</clipPath>
</defs>
</svg>
