<svg width="19" height="21" viewBox="0 0 19 21" fill="none" xmlns="http://www.w3.org/2000/svg">
<path d="M9.54801 16.4862H16.358C16.6232 16.5011 16.8878 16.4478 17.1265 16.3314C17.3653 16.215 17.5702 16.0393 17.7218 15.8212C17.8734 15.6032 17.9666 15.3499 17.9926 15.0855C18.0185 14.8212 17.9763 14.5546 17.87 14.3112C17.51 13.2232 16.075 11.9182 16.075 10.6342C16.075 7.78422 16.075 7.03422 14.671 5.35822C14.2161 4.8193 13.6529 4.38215 13.018 4.07522L12.235 3.69522C12.1032 3.61645 11.9895 3.51069 11.9014 3.38488C11.8134 3.25906 11.7529 3.11605 11.724 2.96522C11.6457 2.45763 11.3773 1.9988 10.9733 1.68181C10.5692 1.36481 10.0596 1.21338 9.54801 1.25822C9.04562 1.22805 8.55002 1.38623 8.15801 1.70188C7.766 2.01752 7.50572 2.46796 7.42801 2.96522C7.39282 3.12104 7.32379 3.2672 7.2258 3.39336C7.12781 3.51952 7.00327 3.62257 6.86101 3.69522L6.07801 4.07522C5.44344 4.38227 4.88058 4.81941 4.42601 5.35822C3.02301 7.03422 3.02301 7.78422 3.02301 10.6342C3.02301 11.9182 1.65301 13.0922 1.29301 14.2452C1.07601 14.9422 0.956006 16.4862 2.77301 16.4862H9.54801Z" stroke="#0F0F0F" stroke-width="1.5" stroke-linecap="round" stroke-linejoin="round"/>
<path d="M12.811 16.4863C12.8199 16.9173 12.7415 17.3455 12.5807 17.7454C12.4198 18.1453 12.1798 18.5086 11.875 18.8133C11.5702 19.1181 11.207 19.3581 10.8071 19.519C10.4072 19.6798 9.97895 19.7582 9.54802 19.7493C9.11706 19.7585 8.6887 19.6803 8.28874 19.5195C7.88878 19.3588 7.52548 19.1188 7.22073 18.8139C6.91597 18.5091 6.67605 18.1457 6.51541 17.7457C6.35478 17.3457 6.27675 16.9173 6.28602 16.4863" stroke="#0F0F0F" stroke-width="1.5" stroke-linecap="round" stroke-linejoin="round"/>
</svg>
