<svg width="26" height="26" viewBox="0 0 26 26" fill="none" xmlns="http://www.w3.org/2000/svg">
<path d="M12.9588 19.4849H20.3363C20.6236 19.501 20.9103 19.4432 21.1689 19.3171C21.4275 19.191 21.6495 19.0007 21.8138 18.7645C21.978 18.5282 22.079 18.2538 22.1071 17.9675C22.1352 17.6811 22.0895 17.3923 21.9743 17.1286C21.5843 15.95 20.0298 14.5362 20.0298 13.1452C20.0298 10.0577 20.0297 9.2452 18.5087 7.42953C18.016 6.8457 17.4058 6.37213 16.718 6.03962L15.8697 5.62795C15.7269 5.54262 15.6038 5.42804 15.5084 5.29175C15.413 5.15545 15.3475 5.00052 15.3162 4.83712C15.2314 4.28722 14.9406 3.79017 14.5029 3.44675C14.0651 3.10334 13.5131 2.93929 12.9588 2.98787C12.4146 2.95518 11.8777 3.12655 11.453 3.4685C11.0283 3.81045 10.7464 4.29842 10.6622 4.83712C10.624 5.00592 10.5493 5.16427 10.4431 5.30094C10.337 5.43761 10.202 5.54925 10.0479 5.62795L9.19967 6.03962C8.51222 6.37226 7.90246 6.84582 7.41 7.42953C5.89008 9.2452 5.89008 10.0577 5.89008 13.1452C5.89008 14.5362 4.40592 15.808 4.01592 17.0571C3.78083 17.8122 3.65083 19.4849 5.61925 19.4849H12.9588Z" stroke="black" stroke-width="1.5" stroke-linecap="round" stroke-linejoin="round"/>
<path d="M16.4937 19.4849C16.5033 19.9517 16.4185 20.4157 16.2442 20.8489C16.07 21.2821 15.8099 21.6756 15.4797 22.0058C15.1496 22.336 14.7561 22.596 14.3228 22.7702C13.8896 22.9445 13.4257 23.0294 12.9588 23.0198C12.492 23.0297 12.0279 22.945 11.5946 22.7708C11.1613 22.5967 10.7678 22.3367 10.4376 22.0064C10.1074 21.6761 9.84753 21.2825 9.67351 20.8492C9.49948 20.4158 9.41495 19.9517 9.425 19.4849" stroke="black" stroke-width="1.5" stroke-linecap="round" stroke-linejoin="round"/>
</svg>
