<svg width="24" height="24" viewBox="0 0 24 24" fill="none" xmlns="http://www.w3.org/2000/svg">
<path d="M7.50602 15.2649C7.53229 15.3599 7.577 15.4487 7.6376 15.5264C7.6982 15.604 7.7735 15.669 7.85921 15.7176C7.94492 15.7661 8.03935 15.7973 8.13712 15.8094C8.23489 15.8215 8.33408 15.8142 8.42902 15.7879C8.52397 15.7616 8.61281 15.7169 8.69048 15.6563C8.76815 15.5957 8.83312 15.5204 8.88168 15.4347C8.93025 15.349 8.96146 15.2546 8.97353 15.1568C8.98559 15.059 8.97829 14.9599 8.95202 14.8649L7.50602 15.2649ZM3.20002 4.72491C3.10471 4.69706 3.00481 4.68843 2.90612 4.6995C2.80744 4.71057 2.71194 4.74113 2.62516 4.7894C2.53838 4.83768 2.46205 4.9027 2.4006 4.9807C2.33915 5.05871 2.2938 5.14814 2.26719 5.24381C2.24057 5.33948 2.23322 5.43948 2.24556 5.53801C2.2579 5.63654 2.28968 5.73164 2.33906 5.8178C2.38844 5.90395 2.45444 5.97944 2.53323 6.03988C2.61202 6.10032 2.70202 6.14452 2.79802 6.16991L3.20002 4.72491ZM20.188 15.7249C20.2857 15.7023 20.3778 15.6604 20.459 15.6016C20.5402 15.5428 20.6087 15.4683 20.6607 15.3826C20.7126 15.2968 20.7468 15.2016 20.7612 15.1024C20.7757 15.0032 20.7701 14.9021 20.7448 14.8051C20.7196 14.7081 20.6751 14.6172 20.6141 14.5376C20.5531 14.4581 20.4767 14.3916 20.3896 14.3421C20.3025 14.2926 20.2063 14.261 20.1067 14.2493C20.0072 14.2376 19.9063 14.246 19.81 14.2739L20.188 15.7249ZM10.197 17.5589C10.507 18.6789 9.82702 19.8619 8.62302 20.1749L9.00002 21.6259C10.977 21.1129 12.185 19.1239 11.643 17.1589L10.197 17.5589ZM8.62302 20.1749C7.41102 20.4899 6.19502 19.7859 5.88302 18.6559L4.43702 19.0559C4.97702 21.0109 7.03102 22.1379 9.00002 21.6259L8.62302 20.1749ZM5.88302 18.6559C5.57302 17.5359 6.25302 16.3529 7.45702 16.0399L7.08002 14.5899C5.10302 15.1029 3.89402 17.0909 4.43702 19.0559L5.88302 18.6559ZM7.45702 16.0399C8.66902 15.7249 9.88502 16.4289 10.197 17.5589L11.643 17.1589C11.103 15.2039 9.04902 14.0769 7.08002 14.5889L7.45702 16.0399ZM8.95202 14.8649L6.80002 7.07491L5.35402 7.47491L7.50602 15.2649L8.95202 14.8649ZM4.90402 5.19691L3.20002 4.72491L2.79802 6.16991L4.50302 6.64291L4.90402 5.19691ZM6.80002 7.07491C6.67315 6.62476 6.43181 6.21516 6.09953 5.88603C5.76725 5.55691 5.35536 5.31948 4.90402 5.19691L4.50502 6.64291C4.93002 6.76091 5.24602 7.08391 5.35402 7.47491L6.80002 7.07491ZM11.11 18.0849L20.188 15.7249L19.811 14.2739L10.732 16.6339L11.11 18.0849Z" fill="black"/>
<path d="M19.1651 6.236C18.6801 4.48 18.4371 3.602 17.7251 3.203C17.0111 2.803 16.1061 3.039 14.2961 3.51L12.3761 4.008C10.5661 4.478 9.66107 4.714 9.25007 5.406C8.83807 6.097 9.08007 6.975 9.56507 8.73L10.0801 10.593C10.5651 12.348 10.8071 13.226 11.5201 13.625C12.2331 14.025 13.1381 13.789 14.9481 13.319L16.8681 12.819C18.6781 12.349 19.5831 12.114 19.9951 11.423C20.2211 11.043 20.2501 10.607 20.1491 10" stroke="black" stroke-width="1.5" stroke-linecap="round"/>
</svg>
