<svg width="25" height="25" viewBox="0 0 25 25" fill="none" xmlns="http://www.w3.org/2000/svg">
<path d="M11.578 20.4005L11.2555 21.461C7.10202 21.0935 4.67352 18.26 4.67352 15.5V14.75C4.67352 14.1533 4.91058 13.581 5.33253 13.159C5.75449 12.7371 6.32679 12.5 6.92352 12.5H13.7335C13.1485 12.9125 12.634 13.4195 12.2155 14H6.92352C6.72461 14 6.53385 14.079 6.39319 14.2197C6.25254 14.3603 6.17352 14.5511 6.17352 14.75V15.5C6.17352 17.507 8.03502 19.6775 11.3995 19.967C11.4535 20.114 11.5135 20.258 11.578 20.4005ZM12.1735 2.75C13.2675 2.75 14.3168 3.1846 15.0903 3.95818C15.8639 4.73177 16.2985 5.78098 16.2985 6.875C16.2985 7.96902 15.8639 9.01823 15.0903 9.79182C14.3168 10.5654 13.2675 11 12.1735 11C11.0795 11 10.0303 10.5654 9.25671 9.79182C8.48312 9.01823 8.04852 7.96902 8.04852 6.875C8.04852 5.78098 8.48312 4.73177 9.25671 3.95818C10.0303 3.1846 11.0795 2.75 12.1735 2.75ZM12.1735 4.25C11.4773 4.25 10.8097 4.52656 10.3174 5.01884C9.82508 5.51113 9.54852 6.17881 9.54852 6.875C9.54852 7.57119 9.82508 8.23887 10.3174 8.73116C10.8097 9.22344 11.4773 9.5 12.1735 9.5C12.8697 9.5 13.5374 9.22344 14.0297 8.73116C14.522 8.23887 14.7985 7.57119 14.7985 6.875C14.7985 6.17881 14.522 5.51113 14.0297 5.01884C13.5374 4.52656 12.8697 4.25 12.1735 4.25ZM22.6735 17.75C22.6738 18.6639 22.4354 19.5621 21.982 20.3557C21.5287 21.1493 20.876 21.8107 20.0886 22.2747C19.3011 22.7386 18.4062 22.9889 17.4924 23.0009C16.5785 23.0129 15.6774 22.7861 14.878 22.343L12.79 22.9775C12.7073 23.0028 12.6192 23.005 12.5352 22.9841C12.4513 22.9632 12.3746 22.9198 12.3134 22.8586C12.2523 22.7974 12.2089 22.7207 12.1879 22.6368C12.167 22.5528 12.1693 22.4648 12.1945 22.382L12.8305 20.2955C12.4424 19.5946 12.2199 18.8141 12.18 18.0139C12.1401 17.2137 12.2839 16.415 12.6004 15.6789C12.9168 14.9428 13.3976 14.289 14.0057 13.7674C14.6139 13.2458 15.3334 12.8703 16.1091 12.6697C16.8847 12.4691 17.6961 12.4487 18.4808 12.6101C19.2656 12.7714 20.0031 13.1103 20.6367 13.6006C21.2703 14.091 21.7833 14.7199 22.1363 15.4391C22.4894 16.1583 22.6731 16.9488 22.6735 17.75ZM15.9235 15.5C15.7246 15.5 15.5338 15.579 15.3932 15.7197C15.2525 15.8603 15.1735 16.0511 15.1735 16.25C15.1735 16.4489 15.2525 16.6397 15.3932 16.7803C15.5338 16.921 15.7246 17 15.9235 17H18.9235C19.1224 17 19.3132 16.921 19.4539 16.7803C19.5945 16.6397 19.6735 16.4489 19.6735 16.25C19.6735 16.0511 19.5945 15.8603 19.4539 15.7197C19.3132 15.579 19.1224 15.5 18.9235 15.5H15.9235ZM15.1735 19.25C15.1735 19.4489 15.2525 19.6397 15.3932 19.7803C15.5338 19.921 15.7246 20 15.9235 20H17.4235C17.6224 20 17.8132 19.921 17.9539 19.7803C18.0945 19.6397 18.1735 19.4489 18.1735 19.25C18.1735 19.0511 18.0945 18.8603 17.9539 18.7197C17.8132 18.579 17.6224 18.5 17.4235 18.5H15.9235C15.7246 18.5 15.5338 18.579 15.3932 18.7197C15.2525 18.8603 15.1735 19.0511 15.1735 19.25Z" fill="#0F0F0F"/>
</svg>
