<svg width="30" height="30" viewBox="0 0 30 30" fill="none" xmlns="http://www.w3.org/2000/svg">
<path d="M18.75 10H18.7625M7.5 16.25L10.805 12.945C10.9455 12.8044 11.1123 12.6929 11.2959 12.6168C11.4795 12.5407 11.6763 12.5015 11.875 12.5015C12.0737 12.5015 12.2705 12.5407 12.4541 12.6168C12.6377 12.6929 12.8045 12.8044 12.945 12.945L17.5 17.5" stroke="#6F6F6F" stroke-width="2" stroke-linecap="round" stroke-linejoin="round"/>
<path d="M16.25 16.25L18.305 14.195C18.4455 14.0544 18.6123 13.9429 18.7959 13.8668C18.9795 13.7907 19.1763 13.7515 19.375 13.7515C19.5737 13.7515 19.7705 13.7907 19.9541 13.8668C20.1377 13.9429 20.3045 14.0544 20.445 14.195L22.5 16.25M5 10V7.5C5 6.83696 5.26339 6.20107 5.73223 5.73223C6.20107 5.26339 6.83696 5 7.5 5H10M5 20V22.5C5 23.163 5.26339 23.7989 5.73223 24.2678C6.20107 24.7366 6.83696 25 7.5 25H10M20 5H22.5C23.163 5 23.7989 5.26339 24.2678 5.73223C24.7366 6.20107 25 6.83696 25 7.5V10M20 25H22.5C23.163 25 23.7989 24.7366 24.2678 24.2678C24.7366 23.7989 25 23.163 25 22.5V20" stroke="#6F6F6F" stroke-width="2" stroke-linecap="round" stroke-linejoin="round"/>
</svg>
