<svg width="15" height="15" viewBox="0 0 15 15" fill="none" xmlns="http://www.w3.org/2000/svg">
<g clip-path="url(#clip0_3460_4774)">
<path d="M6.92124 1.64563C7.12124 1.11813 7.87811 1.11813 8.07874 1.64563L9.37249 5.22937C9.41762 5.34612 9.4971 5.44643 9.60043 5.51706C9.70375 5.58769 9.82607 5.62533 9.95124 5.625H13.1306C13.7181 5.625 13.9744 6.35625 13.5125 6.71438L11.25 8.75C11.1486 8.82791 11.0746 8.93592 11.0384 9.05854C11.0023 9.18115 11.0059 9.31207 11.0487 9.4325L11.875 12.9344C12.0762 13.4969 11.425 13.98 10.9325 13.6337L7.85936 11.6838C7.75412 11.6098 7.62862 11.5701 7.49999 11.5701C7.37135 11.5701 7.24585 11.6098 7.14061 11.6838L4.06749 13.6337C3.57561 13.98 2.92374 13.4962 3.12499 12.9344L3.95124 9.4325C3.9941 9.31207 3.99771 9.18115 3.96155 9.05854C3.9254 8.93592 3.85133 8.82791 3.74999 8.75L1.48749 6.71438C1.02499 6.35625 1.28249 5.625 1.86874 5.625H5.04811C5.17329 5.62542 5.29565 5.58781 5.399 5.51717C5.50234 5.44652 5.5818 5.34617 5.62686 5.22937L6.92124 1.64563Z" stroke="#FCDC2A" stroke-width="2" stroke-linecap="round" stroke-linejoin="round"/>
</g>
<defs>
<clipPath id="clip0_3460_4774">
<rect width="15" height="15" fill="white"/>
</clipPath>
</defs>
</svg>
