<svg width="32" height="32" viewBox="0 0 32 32" fill="none" xmlns="http://www.w3.org/2000/svg">
<path d="M20 30H12V22H20V30ZM14 28H18V24H14V28Z" fill="white"/>
<path d="M32 11H22V13H26V16H6V13H10V11H0V13H4V18H9.132L6 22.697V27H8V23.303L11.535 18H20.465L24 23.303V27H26V22.697L22.868 18H28V13H32V11ZM16 6C15.2122 5.99971 14.4321 6.15504 13.7044 6.45708C12.9768 6.75911 12.316 7.20189 11.76 7.76L13.173 9.173C13.544 8.80128 13.9846 8.50637 14.4697 8.30516C14.9548 8.10394 15.4748 8.00037 16 8.00037C16.5252 8.00037 17.0452 8.10394 17.5303 8.30516C18.0154 8.50637 18.456 8.80128 18.827 9.173L20.241 7.759C19.6848 7.20091 19.0238 6.75821 18.296 6.45635C17.5682 6.15448 16.7879 5.9994 16 6Z" fill="white"/>
<path d="M8.93201 4.93201L10.346 6.34601C11.088 5.60257 11.9693 5.01275 12.9395 4.61032C13.9096 4.20789 14.9497 4.00075 16 4.00075C17.0503 4.00075 18.0904 4.20789 19.0606 4.61032C20.0307 5.01275 20.912 5.60257 21.654 6.34601L23.068 4.93201C22.1406 4.00244 21.0389 3.26494 19.8261 2.76173C18.6133 2.25853 17.3131 1.99951 16 1.99951C14.6869 1.99951 13.3867 2.25853 12.1739 2.76173C10.9611 3.26494 9.85941 4.00244 8.93201 4.93201Z" fill="white"/>
</svg>
