<svg width="24" height="24" viewBox="0 0 24 24" fill="none" xmlns="http://www.w3.org/2000/svg">
<path d="M12.7886 1.14014C12.0888 1.15476 11.5858 1.29229 11.2527 1.53604L6.69841 3.98039L4.16219 7.42635C3.62908 8.24929 4.00867 9.84398 5.67714 8.82196L7.50058 6.41489C9.81977 4.41281 14.5545 5.33526 12.3093 9.34884C11.2063 11.673 11.7254 12.8077 13.1418 13.284L13.7892 11.1099C14.9119 8.58684 17.0003 8.13286 16.915 6.09871L21.9449 6.46082L21.9043 1.20871L12.7886 1.14014ZM10.2532 5.98411C9.43708 5.97004 8.63669 6.30745 8.0538 6.79856L6.22361 9.20465C6.72578 9.60337 7.22734 9.39023 7.72947 8.90639C8.32131 9.20611 8.77783 8.74129 9.15283 7.81434C9.30831 7.18204 9.53767 6.73448 10.2532 5.98411H10.2532ZM8.72425 10.1243C8.63945 10.1269 8.55604 10.1466 8.479 10.1822L2.42444 12.9717C2.10644 13.1184 1.9668 13.4968 2.11352 13.8151L6.11055 22.4907C6.25736 22.8087 6.63578 22.9491 6.9543 22.8017L13.0082 20.0125C13.3268 19.8654 13.4665 19.4876 13.3198 19.1687L9.32205 10.4937C9.21222 10.2547 8.97175 10.1167 8.7242 10.1243H8.72425ZM7.32892 12.4709C7.69427 12.4762 8.02797 12.5671 8.31761 12.7449C8.82189 13.0545 9.19089 13.726 9.23842 14.4209C9.27114 14.8983 9.15817 15.257 8.65 16.2899C8.46817 16.6596 8.38591 17.0057 8.41225 17.291C8.43381 17.5241 8.4491 17.5654 8.58283 17.7524L8.72978 17.9577L8.64756 18.0037C8.60233 18.0289 8.31489 18.149 8.0088 18.2705C7.68452 18.3992 7.43149 18.4813 7.40252 18.4671C7.37519 18.4537 7.29227 18.3442 7.21825 18.2239C6.86552 17.6507 6.87958 16.9334 7.25941 16.132C7.57136 15.4739 7.65644 15.1961 7.63216 14.9144C7.59395 14.472 7.31608 14.142 6.93681 14.0887C6.65458 14.0489 6.43675 14.1146 6.05031 14.356C5.66134 14.5989 5.39683 14.8579 5.15711 15.2305C5.07274 15.3616 4.99741 15.4673 4.98977 15.4655C4.98208 15.4636 4.83949 15.1254 4.67299 14.7138L4.37017 13.9653L4.52158 13.7935C4.79388 13.4842 5.07274 13.2701 5.56342 12.9936C6.19342 12.6386 6.79497 12.4632 7.32892 12.4709ZM8.89024 18.7075C9.19319 18.7133 9.46117 18.8582 9.62617 19.1276C9.82755 19.4564 9.82235 19.7763 9.61052 20.1004C9.47505 20.3076 9.19085 20.49 8.90552 20.5529C8.1962 20.7092 7.59124 20.115 7.79336 19.4604C7.87853 19.1845 8.04297 18.9946 8.32178 18.8501C8.51416 18.7505 8.7085 18.704 8.89024 18.7075Z" fill="white"/>
</svg>
