<svg width="30" height="30" viewBox="0 0 30 30" fill="none" xmlns="http://www.w3.org/2000/svg">
<path d="M21.7975 27.4211H8.2025C7.3737 27.4211 6.57884 27.0919 5.99279 26.5058C5.40674 25.9198 5.0775 25.1249 5.0775 24.2961V23.2624C5.0775 18.3011 9.52875 14.2624 15 14.2624C20.4712 14.2624 24.9225 18.2986 24.9225 23.2624V24.2961C24.9225 25.1249 24.5933 25.9198 24.0072 26.5058C23.4212 27.0919 22.6263 27.4211 21.7975 27.4211ZM15 15.5149C10.2175 15.5149 6.3275 18.9899 6.3275 23.2649V24.2986C6.3275 24.7959 6.52504 25.2728 6.87667 25.6244C7.22831 25.9761 7.70522 26.1736 8.2025 26.1736H21.7975C22.2948 26.1736 22.7717 25.9761 23.1233 25.6244C23.475 25.2728 23.6725 24.7959 23.6725 24.2986V23.2624C23.6725 18.9899 19.7825 15.5149 15 15.5149ZM15 12.3886C14.0298 12.3889 13.0814 12.1014 12.2746 11.5626C11.4678 11.0238 10.8389 10.2578 10.4675 9.36154C10.096 8.46529 9.99873 7.47902 10.1878 6.52746C10.377 5.5759 10.844 4.7018 11.5299 4.0157C12.2159 3.3296 13.0899 2.86232 14.0414 2.67296C14.9929 2.48359 15.9792 2.58066 16.8755 2.95187C17.7719 3.32308 18.538 3.95176 19.077 4.75841C19.616 5.56506 19.9037 6.51344 19.9037 7.48362C19.9028 8.78398 19.3858 10.0308 18.4665 10.9504C17.5471 11.8701 16.3004 12.3873 15 12.3886ZM15 3.82987C14.277 3.82962 13.5702 4.0438 12.9689 4.44532C12.3677 4.84684 11.899 5.41767 11.6222 6.08558C11.3454 6.7535 11.2729 7.4885 11.4139 8.19761C11.5549 8.90673 11.903 9.5581 12.4143 10.0693C12.9255 10.5806 13.5769 10.9287 14.286 11.0697C14.9951 11.2107 15.7301 11.1382 16.398 10.8614C17.066 10.5846 17.6368 10.1159 18.0383 9.5147C18.4398 8.91344 18.654 8.20661 18.6537 7.48362C18.6528 6.51489 18.2675 5.58612 17.5825 4.90112C16.8975 4.21612 15.9687 3.83086 15 3.82987Z" fill="black"/>
</svg>
