<svg width="25" height="25" viewBox="0 0 25 25" fill="none" xmlns="http://www.w3.org/2000/svg">
<path d="M11.5352 2.74263C11.8685 1.86346 13.13 1.86346 13.4644 2.74263L15.6206 8.71554C15.6958 8.91011 15.8283 9.0773 16.0005 9.19502C16.1727 9.31274 16.3766 9.37547 16.5852 9.37492H21.8841C22.8633 9.37492 23.2904 10.5937 22.5206 11.1905L18.7498 14.5833C18.5809 14.7131 18.4574 14.8931 18.3972 15.0975C18.3369 15.3018 18.3429 15.52 18.4144 15.7208L19.7914 21.5572C20.1269 22.4947 19.0414 23.2999 18.2206 22.7228L13.0987 19.4728C12.9233 19.3496 12.7142 19.2834 12.4998 19.2834C12.2854 19.2834 12.0762 19.3496 11.9008 19.4728L6.77894 22.7228C5.95915 23.2999 4.87269 22.4937 5.20811 21.5572L6.58519 15.7208C6.65663 15.52 6.66265 15.3018 6.60239 15.0975C6.54213 14.8931 6.41869 14.7131 6.24977 14.5833L2.47894 11.1905C1.70811 10.5937 2.13727 9.37492 3.11436 9.37492H8.41332C8.62195 9.37561 8.82588 9.31294 8.99813 9.1952C9.17037 9.07746 9.3028 8.9102 9.3779 8.71554L11.5352 2.74263Z" stroke="#FCDC2A" stroke-width="2" stroke-linecap="round" stroke-linejoin="round"/>
</svg>
